<?xml version="1.0" encoding="utf-8"?>
<!-- Generator: Adobe Illustrator 27.2.0, SVG Export Plug-In . SVG Version: 6.00 Build 0)  -->
<svg version="1.1" id="Layer_1" xmlns="http://www.w3.org/2000/svg" xmlns:xlink="http://www.w3.org/1999/xlink" x="0px" y="0px"
	 viewBox="0 0 828 477" style="enable-background:new 0 0 828 477;" xml:space="preserve">
<style type="text/css">
	.st0{fill:none;stroke:#FF0000;stroke-linecap:round;stroke-miterlimit:288;}
	.st1{fill:none;stroke:#FF0000;stroke-miterlimit:10;}
</style>
<g id="svgGroup">
	<path id="front_outsideCutPath" vector-effect="non-scaling-stroke" class="st0" d="M0,243v35.2h8.5v23.4H0v23.3h8.5v23.4H0v23.3
		h8.5v23.4H0v23.3h8.5v23.4H0v23.3V477h38.9v-8.5h23.3v8.5h23.4v-8.5h23.3v8.5h23.4v-8.5h23.3v8.5h23.4v-8.5h23.3v8.5h23.4v-8.5
		h23.3v8.5h23.4H288v-35.2h-8.5v-23.4h8.5v-23.3h-8.5v-23.4h8.5v-23.3h-8.5v-23.4h8.5v-23.3h-8.5v-23.4h8.5v-23.3V243H0z"/>
	<path id="left_outsideCutPath" vector-effect="non-scaling-stroke" class="st0" d="M305.5,243v35.2H297v23.4h8.5v23.3H297v23.4h8.5
		v23.3H297v23.4h8.5v23.3H297v23.4h8.5v23.3V477h26.7v-8.5h23.4v8.5h23.3v-8.5h23.4v8.5h23.3v-8.5h23.4v8.5h23.3v-8.5h23.4v8.5h23.3
		h3.4v-35.2h8.5v-23.4h-8.5v-23.3h8.5v-23.4h-8.5v-23.3h8.5v-23.4h-8.5v-23.3h8.5v-23.4h-8.5v-23.3V243H305.5z"/>
	<path id="back_outsideCutPath" vector-effect="non-scaling-stroke" class="st0" d="M0,0v35.2h8.5v23.4H0v23.3h8.5v23.4H0v23.3h8.5
		v23.4H0v23.3h8.5v23.4H0v23.3V234h38.9v-8.5h23.3v8.5h23.4v-8.5h23.3v8.5h23.4v-8.5h23.3v8.5h23.4v-8.5h23.3v8.5h23.4v-8.5h23.3
		v8.5h23.4H288v-35.2h-8.5v-23.4h8.5v-23.3h-8.5v-23.4h8.5v-23.3h-8.5V81.9h8.5V58.6h-8.5V35.2h8.5V11.9V0H0z"/>
	<path id="right_outsideCutPath" vector-effect="non-scaling-stroke" class="st0" d="M305.5,0v35.2H297v23.4h8.5v23.3H297v23.4h8.5
		v23.3H297v23.4h8.5v23.3H297v23.4h8.5v23.3V234h26.7v-8.5h23.4v8.5h23.3v-8.5h23.4v8.5h23.3v-8.5h23.4v8.5h23.3v-8.5h23.4v8.5h23.3
		h3.4v-35.2h8.5v-23.4h-8.5v-23.3h8.5v-23.4h-8.5v-23.3h8.5V81.9h-8.5V58.6h8.5V35.2h-8.5V11.9V0H305.5z"/>
	<path id="bottom_outsideCutPath" vector-effect="non-scaling-stroke" class="st0" d="M548.5,251.5v26.7H540v23.4h8.5v23.3H540v23.4
		h8.5v23.3H540v23.4h8.5v23.3H540v23.4h8.5v23.3v3.4h30.4v8.5h23.3v-8.5h23.4v8.5h23.3v-8.5h23.4v8.5h23.3v-8.5h23.4v8.5h23.3v-8.5
		h23.4v8.5h23.3v-8.5h23.4h7v-26.7h8.5v-23.4h-8.5v-23.3h8.5v-23.4h-8.5v-23.3h8.5v-23.4h-8.5v-23.3h8.5v-23.4h-8.5v-23.3v-3.4
		h-30.4V243h-23.3v8.5h-23.4V243h-23.3v8.5h-23.4V243h-23.3v8.5h-23.4V243h-23.3v8.5h-23.4V243h-23.3v8.5h-23.4H548.5z"/>
	<g>
		<circle class="st1" cx="728.1" cy="315.9" r="8.5"/>
		<circle class="st1" cx="728.1" cy="404.1" r="8.5"/>
		<circle class="st1" cx="639.9" cy="404.1" r="8.5"/>
		<circle class="st1" cx="639.9" cy="315.9" r="8.5"/>
		<circle class="st1" cx="684" cy="360" r="34"/>
	</g>
</g>
<circle class="st1" cx="72.9" cy="423" r="10.8"/>
<circle class="st1" cx="216.6" cy="423" r="10.8"/>
</svg>
